ffmpeg started on 2025-10-01 at 10:58:24
Report written to "D:\Convert\FFMetrics\reports\psnr_report-6.txt"
Log level: 32
Command line:
ffmpeg -hide_banner -nostdin -i "F:\\\xc0\xed\xe8\xec\xe5\\\xce\xed\xe3\xee\xe8\xed\xe3\xe8\\!_37_\xc7\xe8\xec\xe0_2025\\JamClub\\\xc4\xee\xea\xf2\xee\xf0 \xd1\xf2\xee\xf3\xed\\\xd2\xc2-4\\JamClub_Dr_Stone_Science_Future_08_1080p_HEVC.mkv" -i "F:\\\xc0\xed\xe8\xec\xe5\\\xce\xed\xe3\xee\xe8\xed\xe3\xe8\\!_37_\xc7\xe8\xec\xe0_2025\\JamClub\\\xc4\xee\xea\xf2\xee\xf0 \xd1\xf2\xee\xf3\xed\\\xd2\xc2-4\\JamClub_Dr_Stone_Science_Future_08_1080p.mp4" -lavfi "[0:v]settb=AVTB,setpts=PTS-STARTPTS,format=pix_fmts=yuv420p10le,fps=24000/1001,scale=1920:1080:flags=bicubic:out_range=limited:out_chroma_loc=left,colorspace=format=yuv420p10:range=tv:primaries=bt709:trc=bt709:space=bt709:fast=0[main];[1:v]settb=AVTB,setpts=PTS-STARTPTS,format=pix_fmts=yuv420p,fps=24000/1001,scale=1920:1080:flags=bicubic:out_range=limited:out_chroma_loc=left,colorspace=format=yuv420p:irange=tv:iprimaries=bt709:itrc=bt709:ispace=bt709:range=tv:primaries=bt709:trc=bt709:space=bt709:fast=0[ref];[main][ref]psnr=eof_action=endall:stats_file='D\\:/Convert/FFMetrics/logs/psnr_logfile-6.txt'" -f null -
Input #0, matroska,webm, from 'F:\Аниме\Онгоинги\!_37_Зима_2025\JamClub\Доктор Стоун\ТВ-4\JamClub_Dr_Stone_Science_Future_08_1080p_HEVC.mkv':
  Metadata:
    COMPATIBLE_BRANDS: isomiso2avc1mp41
    MAJOR_BRAND     : isom
    MINOR_VERSION   : 512
    ENCODER         : Lavf61.7.100
  Duration: 00:24:24.88, start: -0.001000, bitrate: 1666 kb/s
  Stream #0:0: Video: hevc (Main 10), yuv420p10le(tv, bt709, progressive), 1920x1080 [SAR 1:1 DAR 16:9], 23.98 fps, 23.98 tbr, 1k tbn (default)
      Metadata:
        HANDLER_NAME    : VideoHandler
        VENDOR_ID       : [0][0][0][0]
        ENCODER         : Lavc61.19.100 libx265
        BPS             : 1468567
        DURATION        : 00:24:22.210708333
        NUMBER_OF_FRAMES: 35058
        NUMBER_OF_BYTES : 268419327
        _STATISTICS_WRITING_APP: mkvpropedit v94.0 ('Initiate') 64-bit
        _STATISTICS_WRITING_DATE_UTC: 2025-09-30 17:48:08
        _STATISTICS_TAGS: BPS DURATION NUMBER_OF_FRAMES NUMBER_OF_BYTES
  Stream #0:1(eng): Audio: aac (LC), 48000 Hz, stereo, fltp (default)
      Metadata:
        HANDLER_NAME    : SoundHandler
        VENDOR_ID       : [0][0][0][0]
        ENCODER         : Lavc61.19.100 aac
        BPS             : 196859
        DURATION        : 00:24:24.835000000
        NUMBER_OF_FRAMES: 68665
        NUMBER_OF_BYTES : 36045786
        _STATISTICS_WRITING_APP: mkvpropedit v94.0 ('Initiate') 64-bit
        _STATISTICS_WRITING_DATE_UTC: 2025-09-30 17:48:08
        _STATISTICS_TAGS: BPS DURATION NUMBER_OF_FRAMES NUMBER_OF_BYTES
Input #1, mov,mp4,m4a,3gp,3g2,mj2, from 'F:\Аниме\Онгоинги\!_37_Зима_2025\JamClub\Доктор Стоун\ТВ-4\JamClub_Dr_Stone_Science_Future_08_1080p.mp4':
  Metadata:
    major_brand     : isom
    minor_version   : 512
    compatible_brands: isomiso2avc1mp41
    encoder         : Lavf60.16.100
  Duration: 00:24:24.86, start: 0.000000, bitrate: 4645 kb/s
  Stream #1:0[0x1](und): Video: h264 (High) (avc1 / 0x31637661), yuv420p(progressive), 1920x1080 [SAR 1:1 DAR 16:9], 4455 kb/s, 23.98 fps, 23.98 tbr, 90k tbn (default)
      Metadata:
        handler_name    : VideoHandler
        vendor_id       : [0][0][0][0]
  Stream #1:1[0x2](eng): Audio: aac (LC) (mp4a / 0x6134706D), 48000 Hz, stereo, fltp, 191 kb/s (default)
      Metadata:
        handler_name    : SoundHandler
        vendor_id       : [0][0][0][0]
Stream mapping:
  Stream #0:0 (hevc) -> settb:default
  Stream #1:0 (h264) -> settb:default
  psnr:default -> Stream #0:0 (wrapped_avframe)
  Stream #0:1 -> #0:1 (aac (native) -> pcm_s16le (native))
Output #0, null, to 'pipe:':
  Metadata:
    COMPATIBLE_BRANDS: isomiso2avc1mp41
    MAJOR_BRAND     : isom
    MINOR_VERSION   : 512
    encoder         : Lavf61.7.100
  Stream #0:0: Video: wrapped_avframe, yuv420p10le(tv, bt709, progressive), 1920x1080 [SAR 1:1 DAR 16:9], q=2-31, 200 kb/s, 23.98 fps, 23.98 tbn
      Metadata:
        encoder         : Lavc61.19.100 wrapped_avframe
  Stream #0:1(eng): Audio: pcm_s16le, 48000 Hz, stereo, s16, 1536 kb/s (default)
      Metadata:
        HANDLER_NAME    : SoundHandler
        VENDOR_ID       : [0][0][0][0]
        _STATISTICS_TAGS: BPS DURATION NUMBER_OF_FRAMES NUMBER_OF_BYTES
        BPS             : 196859
        DURATION        : 00:24:24.835000000
        NUMBER_OF_FRAMES: 68665
        NUMBER_OF_BYTES : 36045786
        _STATISTICS_WRITING_APP: mkvpropedit v94.0 ('Initiate') 64-bit
        _STATISTICS_WRITING_DATE_UTC: 2025-09-30 17:48:08
        encoder         : Lavc61.19.100 pcm_s16le
frame=  101 fps=0.0 q=-0.0 size=N/A time=00:00:04.21 bitrate=N/A speed=8.05x    frame=  236 fps=228 q=-0.0 size=N/A time=00:00:09.84 bitrate=N/A speed=9.51x    frame=  392 fps=254 q=-0.0 size=N/A time=00:00:16.34 bitrate=N/A speed=10.6x    frame=  572 fps=276 q=-0.0 size=N/A time=00:00:23.85 bitrate=N/A speed=11.5x    frame=  757 fps=291 q=-0.0 size=N/A time=00:00:31.57 bitrate=N/A speed=12.1x    frame=  923 fps=297 q=-0.0 size=N/A time=00:00:38.49 bitrate=N/A speed=12.4x    frame= 1103 fps=304 q=-0.0 size=N/A time=00:00:46.00 bitrate=N/A speed=12.7x    frame= 1286 fps=311 q=-0.0 size=N/A time=00:00:53.63 bitrate=N/A speed=  13x    frame= 1480 fps=317 q=-0.0 size=N/A time=00:01:01.72 bitrate=N/A speed=13.2x    frame= 1644 fps=318 q=-0.0 size=N/A time=00:01:08.56 bitrate=N/A speed=13.3x    frame= 1820 fps=320 q=-0.0 size=N/A time=00:01:15.90 bitrate=N/A speed=13.3x    frame= 1981 fps=320 q=-0.0 size=N/A time=00:01:22.62 bitrate=N/A speed=13.3x    frame= 2141 fps=318 q=-0.0 size=N/A time=00:01:29.29 bitrate=N/A speed=13.3x    frame= 2322 fps=321 q=-0.0 size=N/A time=00:01:36.84 bitrate=N/A speed=13.4x    frame= 2485 fps=321 q=-0.0 size=N/A time=00:01:43.64 bitrate=N/A speed=13.4x    frame= 2683 fps=325 q=-0.0 size=N/A time=00:01:51.90 bitrate=N/A speed=13.5x    frame= 2882 fps=328 q=-0.0 size=N/A time=00:02:00.20 bitrate=N/A speed=13.7x    frame= 3043 fps=327 q=-0.0 size=N/A time=00:02:06.91 bitrate=N/A speed=13.6x    frame= 3193 fps=325 q=-0.0 size=N/A time=00:02:13.17 bitrate=N/A speed=13.6x    frame= 3377 fps=327 q=-0.0 size=N/A time=00:02:20.84 bitrate=N/A speed=13.6x    frame= 3568 fps=329 q=-0.0 size=N/A time=00:02:28.81 bitrate=N/A speed=13.7x    frame= 3760 fps=331 q=-0.0 size=N/A time=00:02:36.82 bitrate=N/A speed=13.8x    frame= 3946 fps=332 q=-0.0 size=N/A time=00:02:44.58 bitrate=N/A speed=13.9x    frame= 4123 fps=333 q=-0.0 size=N/A time=00:02:51.96 bitrate=N/A speed=13.9x    frame= 4319 fps=334 q=-0.0 size=N/A time=00:03:00.13 bitrate=N/A speed=13.9x    frame= 4517 fps=336 q=-0.0 size=N/A time=00:03:08.39 bitrate=N/A speed=  14x    frame= 4701 fps=337 q=-0.0 size=N/A time=00:03:16.07 bitrate=N/A speed=14.1x    frame= 4883 fps=338 q=-0.0 size=N/A time=00:03:23.66 bitrate=N/A speed=14.1x    frame= 5057 fps=338 q=-0.0 size=N/A time=00:03:30.91 bitrate=N/A speed=14.1x    frame= 5198 fps=336 q=-0.0 size=N/A time=00:03:36.79 bitrate=N/A speed=  14x    frame= 5319 fps=332 q=-0.0 size=N/A time=00:03:41.84 bitrate=N/A speed=13.9x    frame= 5450 fps=330 q=-0.0 size=N/A time=00:03:47.31 bitrate=N/A speed=13.8x    frame= 5578 fps=327 q=-0.0 size=N/A time=00:03:52.64 bitrate=N/A speed=13.7x    frame= 5712 fps=326 q=-0.0 size=N/A time=00:03:58.23 bitrate=N/A speed=13.6x    frame= 5854 fps=324 q=-0.0 size=N/A time=00:04:04.16 bitrate=N/A speed=13.5x    frame= 6015 fps=324 q=-0.0 size=N/A time=00:04:10.87 bitrate=N/A speed=13.5x    frame= 6145 fps=322 q=-0.0 size=N/A time=00:04:16.29 bitrate=N/A speed=13.4x    frame= 6268 fps=320 q=-0.0 size=N/A time=00:04:21.42 bitrate=N/A speed=13.3x    frame= 6401 fps=318 q=-0.0 size=N/A time=00:04:26.97 bitrate=N/A speed=13.3x    frame= 6532 fps=316 q=-0.0 size=N/A time=00:04:32.43 bitrate=N/A speed=13.2x    frame= 6637 fps=313 q=-0.0 size=N/A time=00:04:36.81 bitrate=N/A speed=13.1x    frame= 6768 fps=312 q=-0.0 size=N/A time=00:04:42.28 bitrate=N/A speed=  13x    frame= 6949 fps=313 q=-0.0 size=N/A time=00:04:49.83 bitrate=N/A speed=13.1x    frame= 7064 fps=311 q=-0.0 size=N/A time=00:04:54.62 bitrate=N/A speed=  13x    frame= 7218 fps=311 q=-0.0 size=N/A time=00:05:01.05 bitrate=N/A speed=  13x    frame= 7399 fps=312 q=-0.0 size=N/A time=00:05:08.59 bitrate=N/A speed=  13x    frame= 7597 fps=313 q=-0.0 size=N/A time=00:05:16.85 bitrate=N/A speed=13.1x    frame= 7794 fps=314 q=-0.0 size=N/A time=00:05:25.07 bitrate=N/A speed=13.1x    frame= 7967 fps=315 q=-0.0 size=N/A time=00:05:32.29 bitrate=N/A speed=13.1x    frame= 8158 fps=316 q=-0.0 size=N/A time=00:05:40.25 bitrate=N/A speed=13.2x    frame= 8344 fps=317 q=-0.0 size=N/A time=00:05:48.01 bitrate=N/A speed=13.2x    frame= 8499 fps=317 q=-0.0 size=N/A time=00:05:54.47 bitrate=N/A speed=13.2x    frame= 8651 fps=316 q=-0.0 size=N/A time=00:06:00.81 bitrate=N/A speed=13.2x    frame= 8801 fps=316 q=-0.0 size=N/A time=00:06:07.07 bitrate=N/A speed=13.2x    frame= 8980 fps=316 q=-0.0 size=N/A time=00:06:14.54 bitrate=N/A speed=13.2x    frame= 9176 fps=317 q=-0.0 size=N/A time=00:06:22.71 bitrate=N/A speed=13.2x    frame= 9338 fps=317 q=-0.0 size=N/A time=00:06:29.47 bitrate=N/A speed=13.2x    frame= 9506 fps=318 q=-0.0 size=N/A time=00:06:36.47 bitrate=N/A speed=13.2x    frame= 9705 fps=319 q=-0.0 size=N/A time=00:06:44.77 bitrate=N/A speed=13.3x    frame= 9891 fps=319 q=-0.0 size=N/A time=00:06:52.53 bitrate=N/A speed=13.3x    frame=10074 fps=320 q=-0.0 size=N/A time=00:07:00.16 bitrate=N/A speed=13.3x    frame=10237 fps=320 q=-0.0 size=N/A time=00:07:06.96 bitrate=N/A speed=13.3x    frame=10429 fps=321 q=-0.0 size=N/A time=00:07:14.97 bitrate=N/A speed=13.4x    frame=10618 fps=321 q=-0.0 size=N/A time=00:07:22.85 bitrate=N/A speed=13.4x    frame=10791 fps=322 q=-0.0 size=N/A time=00:07:30.07 bitrate=N/A speed=13.4x    frame=10958 fps=322 q=-0.0 size=N/A time=00:07:37.03 bitrate=N/A speed=13.4x    frame=11153 fps=322 q=-0.0 size=N/A time=00:07:45.17 bitrate=N/A speed=13.5x    frame=11339 fps=323 q=-0.0 size=N/A time=00:07:52.93 bitrate=N/A speed=13.5x    frame=11515 fps=323 q=-0.0 size=N/A time=00:08:00.27 bitrate=N/A speed=13.5x    frame=11701 fps=324 q=-0.0 size=N/A time=00:08:08.02 bitrate=N/A speed=13.5x    frame=11873 fps=324 q=-0.0 size=N/A time=00:08:15.20 bitrate=N/A speed=13.5x    frame=12043 fps=324 q=-0.0 size=N/A time=00:08:22.29 bitrate=N/A speed=13.5x    frame=12230 fps=325 q=-0.0 size=N/A time=00:08:30.09 bitrate=N/A speed=13.5x    frame=12428 fps=325 q=-0.0 size=N/A time=00:08:38.35 bitrate=N/A speed=13.6x    frame=12613 fps=326 q=-0.0 size=N/A time=00:08:46.06 bitrate=N/A speed=13.6x    frame=12794 fps=326 q=-0.0 size=N/A time=00:08:53.61 bitrate=N/A speed=13.6x    frame=12986 fps=327 q=-0.0 size=N/A time=00:09:01.62 bitrate=N/A speed=13.6x    frame=13186 fps=328 q=-0.0 size=N/A time=00:09:09.96 bitrate=N/A speed=13.7x    frame=13371 fps=328 q=-0.0 size=N/A time=00:09:17.68 bitrate=N/A speed=13.7x    frame=13558 fps=328 q=-0.0 size=N/A time=00:09:25.48 bitrate=N/A speed=13.7x    frame=13746 fps=329 q=-0.0 size=N/A time=00:09:33.32 bitrate=N/A speed=13.7x    frame=13924 fps=329 q=-0.0 size=N/A time=00:09:40.74 bitrate=N/A speed=13.7x    frame=14109 fps=329 q=-0.0 size=N/A time=00:09:48.46 bitrate=N/A speed=13.7x    frame=14298 fps=330 q=-0.0 size=N/A time=00:09:56.34 bitrate=N/A speed=13.8x    frame=14481 fps=330 q=-0.0 size=N/A time=00:10:03.97 bitrate=N/A speed=13.8x    frame=14657 fps=330 q=-0.0 size=N/A time=00:10:11.31 bitrate=N/A speed=13.8x    frame=14845 fps=331 q=-0.0 size=N/A time=00:10:19.16 bitrate=N/A speed=13.8x    frame=15021 fps=331 q=-0.0 size=N/A time=00:10:26.50 bitrate=N/A speed=13.8x    frame=15217 fps=331 q=-0.0 size=N/A time=00:10:34.67 bitrate=N/A speed=13.8x    frame=15398 fps=332 q=-0.0 size=N/A time=00:10:42.22 bitrate=N/A speed=13.8x    frame=15572 fps=332 q=-0.0 size=N/A time=00:10:49.48 bitrate=N/A speed=13.8x    frame=15745 fps=332 q=-0.0 size=N/A time=00:10:56.69 bitrate=N/A speed=13.8x    frame=15914 fps=332 q=-0.0 size=N/A time=00:11:03.74 bitrate=N/A speed=13.8x    frame=16071 fps=331 q=-0.0 size=N/A time=00:11:10.29 bitrate=N/A speed=13.8x    frame=16254 fps=332 q=-0.0 size=N/A time=00:11:17.92 bitrate=N/A speed=13.8x    frame=16436 fps=332 q=-0.0 size=N/A time=00:11:25.51 bitrate=N/A speed=13.8x    frame=16615 fps=332 q=-0.0 size=N/A time=00:11:32.98 bitrate=N/A speed=13.8x    frame=16795 fps=332 q=-0.0 size=N/A time=00:11:40.49 bitrate=N/A speed=13.8x    frame=16971 fps=332 q=-0.0 size=N/A time=00:11:47.83 bitrate=N/A speed=13.9x    frame=17170 fps=333 q=-0.0 size=N/A time=00:11:56.13 bitrate=N/A speed=13.9x    frame=17356 fps=333 q=-0.0 size=N/A time=00:12:03.88 bitrate=N/A speed=13.9x    frame=17545 fps=333 q=-0.0 size=N/A time=00:12:11.77 bitrate=N/A speed=13.9x    frame=17743 fps=334 q=-0.0 size=N/A time=00:12:20.03 bitrate=N/A speed=13.9x    frame=17912 fps=334 q=-0.0 size=N/A time=00:12:27.07 bitrate=N/A speed=13.9x    frame=18089 fps=334 q=-0.0 size=N/A time=00:12:34.46 bitrate=N/A speed=13.9x    frame=18258 fps=334 q=-0.0 size=N/A time=00:12:41.51 bitrate=N/A speed=13.9x    frame=18451 fps=334 q=-0.0 size=N/A time=00:12:49.56 bitrate=N/A speed=13.9x    frame=18626 fps=334 q=-0.0 size=N/A time=00:12:56.85 bitrate=N/A speed=13.9x    frame=18806 fps=334 q=-0.0 size=N/A time=00:13:04.36 bitrate=N/A speed=13.9x    frame=18963 fps=334 q=-0.0 size=N/A time=00:13:10.91 bitrate=N/A speed=13.9x    frame=19144 fps=334 q=-0.0 size=N/A time=00:13:18.46 bitrate=N/A speed=13.9x    frame=19322 fps=334 q=-0.0 size=N/A time=00:13:25.88 bitrate=N/A speed=13.9x    frame=19484 fps=334 q=-0.0 size=N/A time=00:13:32.64 bitrate=N/A speed=13.9x    frame=19643 fps=334 q=-0.0 size=N/A time=00:13:39.27 bitrate=N/A speed=13.9x    frame=19809 fps=334 q=-0.0 size=N/A time=00:13:46.20 bitrate=N/A speed=13.9x    frame=19975 fps=334 q=-0.0 size=N/A time=00:13:53.12 bitrate=N/A speed=13.9x    frame=20161 fps=334 q=-0.0 size=N/A time=00:14:00.88 bitrate=N/A speed=13.9x    frame=20353 fps=334 q=-0.0 size=N/A time=00:14:08.88 bitrate=N/A speed=13.9x    frame=20537 fps=334 q=-0.0 size=N/A time=00:14:16.56 bitrate=N/A speed=13.9x    frame=20720 fps=335 q=-0.0 size=N/A time=00:14:24.19 bitrate=N/A speed=  14x    frame=20901 fps=335 q=-0.0 size=N/A time=00:14:31.74 bitrate=N/A speed=  14x    frame=21086 fps=335 q=-0.0 size=N/A time=00:14:39.46 bitrate=N/A speed=  14x    frame=21269 fps=335 q=-0.0 size=N/A time=00:14:47.09 bitrate=N/A speed=  14x    frame=21457 fps=335 q=-0.0 size=N/A time=00:14:54.93 bitrate=N/A speed=  14x    frame=21646 fps=335 q=-0.0 size=N/A time=00:15:02.81 bitrate=N/A speed=  14x    frame=21831 fps=336 q=-0.0 size=N/A time=00:15:10.53 bitrate=N/A speed=  14x    frame=22022 fps=336 q=-0.0 size=N/A time=00:15:18.50 bitrate=N/A speed=  14x    frame=22204 fps=336 q=-0.0 size=N/A time=00:15:26.09 bitrate=N/A speed=  14x    frame=22374 fps=336 q=-0.0 size=N/A time=00:15:33.18 bitrate=N/A speed=  14x    frame=22551 fps=336 q=-0.0 size=N/A time=00:15:40.56 bitrate=N/A speed=  14x    frame=22734 fps=336 q=-0.0 size=N/A time=00:15:48.19 bitrate=N/A speed=  14x    frame=22920 fps=336 q=-0.0 size=N/A time=00:15:55.95 bitrate=N/A speed=  14x    frame=23103 fps=336 q=-0.0 size=N/A time=00:16:03.58 bitrate=N/A speed=  14x    frame=23282 fps=337 q=-0.0 size=N/A time=00:16:11.05 bitrate=N/A speed=  14x    frame=23473 fps=337 q=-0.0 size=N/A time=00:16:19.01 bitrate=N/A speed=  14x    frame=23658 fps=337 q=-0.0 size=N/A time=00:16:26.73 bitrate=N/A speed=14.1x    frame=23845 fps=337 q=-0.0 size=N/A time=00:16:34.53 bitrate=N/A speed=14.1x    frame=24031 fps=337 q=-0.0 size=N/A time=00:16:42.29 bitrate=N/A speed=14.1x    frame=24217 fps=337 q=-0.0 size=N/A time=00:16:50.05 bitrate=N/A speed=14.1x    frame=24384 fps=337 q=-0.0 size=N/A time=00:16:57.01 bitrate=N/A speed=14.1x    frame=24561 fps=337 q=-0.0 size=N/A time=00:17:04.39 bitrate=N/A speed=14.1x    frame=24738 fps=337 q=-0.0 size=N/A time=00:17:11.78 bitrate=N/A speed=14.1x    frame=24923 fps=338 q=-0.0 size=N/A time=00:17:19.49 bitrate=N/A speed=14.1x    frame=25119 fps=338 q=-0.0 size=N/A time=00:17:27.67 bitrate=N/A speed=14.1x    frame=25296 fps=338 q=-0.0 size=N/A time=00:17:35.05 bitrate=N/A speed=14.1x    frame=25494 fps=338 q=-0.0 size=N/A time=00:17:43.31 bitrate=N/A speed=14.1x    frame=25663 fps=338 q=-0.0 size=N/A time=00:17:50.36 bitrate=N/A speed=14.1x    frame=25844 fps=338 q=-0.0 size=N/A time=00:17:57.91 bitrate=N/A speed=14.1x    frame=26031 fps=338 q=-0.0 size=N/A time=00:18:05.70 bitrate=N/A speed=14.1x    frame=26206 fps=338 q=-0.0 size=N/A time=00:18:13.00 bitrate=N/A speed=14.1x    frame=26383 fps=339 q=-0.0 size=N/A time=00:18:20.39 bitrate=N/A speed=14.1x    frame=26578 fps=339 q=-0.0 size=N/A time=00:18:28.52 bitrate=N/A speed=14.1x    frame=26757 fps=339 q=-0.0 size=N/A time=00:18:35.98 bitrate=N/A speed=14.1x    frame=26915 fps=339 q=-0.0 size=N/A time=00:18:42.57 bitrate=N/A speed=14.1x    frame=27104 fps=339 q=-0.0 size=N/A time=00:18:50.46 bitrate=N/A speed=14.1x    frame=27307 fps=339 q=-0.0 size=N/A time=00:18:58.92 bitrate=N/A speed=14.1x    frame=27491 fps=339 q=-0.0 size=N/A time=00:19:06.60 bitrate=N/A speed=14.1x    frame=27679 fps=339 q=-0.0 size=N/A time=00:19:14.44 bitrate=N/A speed=14.2x    frame=27870 fps=340 q=-0.0 size=N/A time=00:19:22.41 bitrate=N/A speed=14.2x    frame=28058 fps=340 q=-0.0 size=N/A time=00:19:30.25 bitrate=N/A speed=14.2x    frame=28244 fps=340 q=-0.0 size=N/A time=00:19:38.01 bitrate=N/A speed=14.2x    frame=28439 fps=340 q=-0.0 size=N/A time=00:19:46.14 bitrate=N/A speed=14.2x    frame=28628 fps=340 q=-0.0 size=N/A time=00:19:54.02 bitrate=N/A speed=14.2x    frame=28814 fps=340 q=-0.0 size=N/A time=00:20:01.78 bitrate=N/A speed=14.2x    frame=29009 fps=341 q=-0.0 size=N/A time=00:20:09.91 bitrate=N/A speed=14.2x    frame=29206 fps=341 q=-0.0 size=N/A time=00:20:18.13 bitrate=N/A speed=14.2x    frame=29381 fps=341 q=-0.0 size=N/A time=00:20:25.43 bitrate=N/A speed=14.2x    frame=29562 fps=341 q=-0.0 size=N/A time=00:20:32.98 bitrate=N/A speed=14.2x    frame=29740 fps=341 q=-0.0 size=N/A time=00:20:40.40 bitrate=N/A speed=14.2x    frame=29927 fps=341 q=-0.0 size=N/A time=00:20:48.20 bitrate=N/A speed=14.2x    frame=30110 fps=341 q=-0.0 size=N/A time=00:20:55.83 bitrate=N/A speed=14.2x    frame=30294 fps=341 q=-0.0 size=N/A time=00:21:03.51 bitrate=N/A speed=14.2x    frame=30488 fps=341 q=-0.0 size=N/A time=00:21:11.60 bitrate=N/A speed=14.2x    frame=30672 fps=341 q=-0.0 size=N/A time=00:21:19.27 bitrate=N/A speed=14.2x    frame=30854 fps=342 q=-0.0 size=N/A time=00:21:26.86 bitrate=N/A speed=14.2x    frame=31042 fps=342 q=-0.0 size=N/A time=00:21:34.71 bitrate=N/A speed=14.3x    frame=31234 fps=342 q=-0.0 size=N/A time=00:21:42.71 bitrate=N/A speed=14.3x    frame=31405 fps=342 q=-0.0 size=N/A time=00:21:49.85 bitrate=N/A speed=14.3x    frame=31575 fps=342 q=-0.0 size=N/A time=00:21:56.94 bitrate=N/A speed=14.3x    frame=31759 fps=342 q=-0.0 size=N/A time=00:22:04.61 bitrate=N/A speed=14.3x    frame=31962 fps=342 q=-0.0 size=N/A time=00:22:13.08 bitrate=N/A speed=14.3x    frame=32136 fps=342 q=-0.0 size=N/A time=00:22:20.33 bitrate=N/A speed=14.3x    frame=32313 fps=342 q=-0.0 size=N/A time=00:22:27.72 bitrate=N/A speed=14.3x    frame=32479 fps=342 q=-0.0 size=N/A time=00:22:34.64 bitrate=N/A speed=14.3x    frame=32674 fps=342 q=-0.0 size=N/A time=00:22:42.77 bitrate=N/A speed=14.3x    frame=32862 fps=342 q=-0.0 size=N/A time=00:22:50.61 bitrate=N/A speed=14.3x    frame=33038 fps=342 q=-0.0 size=N/A time=00:22:57.95 bitrate=N/A speed=14.3x    frame=33224 fps=342 q=-0.0 size=N/A time=00:23:05.71 bitrate=N/A speed=14.3x    frame=33394 fps=342 q=-0.0 size=N/A time=00:23:12.80 bitrate=N/A speed=14.3x    frame=33558 fps=342 q=-0.0 size=N/A time=00:23:19.64 bitrate=N/A speed=14.3x    frame=33735 fps=342 q=-0.0 size=N/A time=00:23:27.03 bitrate=N/A speed=14.3x    frame=33915 fps=342 q=-0.0 size=N/A time=00:23:34.53 bitrate=N/A speed=14.3x    frame=34090 fps=342 q=-0.0 size=N/A time=00:23:41.83 bitrate=N/A speed=14.3x    frame=34268 fps=342 q=-0.0 size=N/A time=00:23:49.26 bitrate=N/A speed=14.3x    frame=34423 fps=342 q=-0.0 size=N/A time=00:23:55.72 bitrate=N/A speed=14.3x    frame=34559 fps=342 q=-0.0 size=N/A time=00:24:01.39 bitrate=N/A speed=14.2x    frame=34734 fps=342 q=-0.0 size=N/A time=00:24:08.69 bitrate=N/A speed=14.2x    frame=34894 fps=341 q=-0.0 size=N/A time=00:24:15.37 bitrate=N/A speed=14.2x    [Parsed_psnr_12 @ 0000027f9c901f80] PSNR y:47.105223 u:49.690989 v:50.033568 average:47.844484 min:36.855634 max:inf
[out#0/null @ 0000027f91cef200] video:15064KiB audio:274660KiB subtitle:0KiB other streams:0KiB global headers:0KiB muxing overhead: unknown
frame=35058 fps=342 q=-0.0 Lsize=N/A time=00:24:22.21 bitrate=N/A speed=14.2x    
